<svg width="48" height="48" viewBox="0 0 48 48" fill="none" xmlns="http://www.w3.org/2000/svg">
<g clip-path="url(#clip0_18_240)">
<g filter="url(#filter0_d_18_240)">
<path fill-rule="evenodd" clip-rule="evenodd" d="M37 10H11C10.4477 10 10 10.4477 10 11V37C10 37.5523 10.4477 38 11 38H37C37.5523 38 38 37.5523 38 37V11C38 10.4477 37.5523 10 37 10ZM11 8C9.34315 8 8 9.34315 8 11V37C8 38.6569 9.34315 40 11 40H37C38.6569 40 40 38.6569 40 37V11C40 9.34315 38.6569 8 37 8H11Z" fill="white"/>
<path d="M12 2.25C12 2.11193 12.1119 2 12.25 2H15.75C15.8881 2 16 2.11193 16 2.25V5.75C16 5.88807 15.8881 6 15.75 6H12.25C12.1119 6 12 5.88807 12 5.75V2.25Z" fill="white"/>
<path d="M22 2.25C22 2.11193 22.1119 2 22.25 2H25.75C25.8881 2 26 2.11193 26 2.25V5.75C26 5.88807 25.8881 6 25.75 6H22.25C22.1119 6 22 5.88807 22 5.75V2.25Z" fill="white"/>
<path d="M32 2.25C32 2.11193 32.1119 2 32.25 2H35.75C35.8881 2 36 2.11193 36 2.25V5.75C36 5.88807 35.8881 6 35.75 6H32.25C32.1119 6 32 5.88807 32 5.75V2.25Z" fill="white"/>
<path d="M12 42.25C12 42.1119 12.1119 42 12.25 42H15.75C15.8881 42 16 42.1119 16 42.25V45.75C16 45.8881 15.8881 46 15.75 46H12.25C12.1119 46 12 45.8881 12 45.75V42.25Z" fill="white"/>
<path d="M22 42.25C22 42.1119 22.1119 42 22.25 42H25.75C25.8881 42 26 42.1119 26 42.25V45.75C26 45.8881 25.8881 46 25.75 46H22.25C22.1119 46 22 45.8881 22 45.75V42.25Z" fill="white"/>
<path d="M32 42.25C32 42.1119 32.1119 42 32.25 42H35.75C35.8881 42 36 42.1119 36 42.25V45.75C36 45.8881 35.8881 46 35.75 46H32.25C32.1119 46 32 45.8881 32 45.75V42.25Z" fill="white"/>
<path d="M2.25 36C2.11193 36 2 35.8881 2 35.75V32.25C2 32.1119 2.11193 32 2.25 32H5.75C5.88807 32 6 32.1119 6 32.25V35.75C6 35.8881 5.88807 36 5.75 36H2.25Z" fill="white"/>
<path d="M2.25 26C2.11193 26 2 25.8881 2 25.75V22.25C2 22.1119 2.11193 22 2.25 22H5.75C5.88807 22 6 22.1119 6 22.25V25.75C6 25.8881 5.88807 26 5.75 26H2.25Z" fill="white"/>
<path d="M2.25 16C2.11193 16 2 15.8881 2 15.75V12.25C2 12.1119 2.11193 12 2.25 12H5.75C5.88807 12 6 12.1119 6 12.25V15.75C6 15.8881 5.88807 16 5.75 16H2.25Z" fill="white"/>
<path d="M42.25 36C42.1119 36 42 35.8881 42 35.75V32.25C42 32.1119 42.1119 32 42.25 32H45.75C45.8881 32 46 32.1119 46 32.25V35.75C46 35.8881 45.8881 36 45.75 36H42.25Z" fill="white"/>
<path d="M42.25 26C42.1119 26 42 25.8881 42 25.75V22.25C42 22.1119 42.1119 22 42.25 22H45.75C45.8881 22 46 22.1119 46 22.25V25.75C46 25.8881 45.8881 26 45.75 26H42.25Z" fill="white"/>
<path d="M42.25 16C42.1119 16 42 15.8881 42 15.75V12.25C42 12.1119 42.1119 12 42.25 12H45.75C45.8881 12 46 12.1119 46 12.25V15.75C46 15.8881 45.8881 16 45.75 16H42.25Z" fill="white"/>
<path d="M18 15C18 16.6569 16.6569 18 15 18C13.3431 18 12 16.6569 12 15C12 13.3431 13.3431 12 15 12C16.6569 12 18 13.3431 18 15Z" fill="white"/>
<path d="M36 33C36 34.6569 34.6569 36 33 36C31.3431 36 30 34.6569 30 33C30 31.3431 31.3431 30 33 30C34.6569 30 36 31.3431 36 33Z" fill="white"/>
</g>
</g>
<defs>
<filter id="filter0_d_18_240" x="-2" y="2" width="52" height="52" filterUnits="userSpaceOnUse" color-interpolation-filters="sRGB">
<feFlood flood-opacity="0" result="BackgroundImageFix"/>
<feColorMatrix in="SourceAlpha" type="matrix" values="0 0 0 0 0 0 0 0 0 0 0 0 0 0 0 0 0 0 127 0" result="hardAlpha"/>
<feOffset dy="4"/>
<feGaussianBlur stdDeviation="2"/>
<feComposite in2="hardAlpha" operator="out"/>
<feColorMatrix type="matrix" values="0 0 0 0 0 0 0 0 0 0 0 0 0 0 0 0 0 0 0.25 0"/>
<feBlend mode="normal" in2="BackgroundImageFix" result="effect1_dropShadow_18_240"/>
<feBlend mode="normal" in="SourceGraphic" in2="effect1_dropShadow_18_240" result="shape"/>
</filter>
<clipPath id="clip0_18_240">
<rect width="48" height="48" fill="white"/>
</clipPath>
</defs>
</svg>
