<svg width="48" height="48" viewBox="0 0 48 48" fill="none" xmlns="http://www.w3.org/2000/svg">
<g clip-path="url(#clip0_21_254)">
<g filter="url(#filter0_d_21_254)">
<path d="M26 4V10.06C32.78 11.04 38 16.84 38 23.9C38 25.7 37.64 27.4 37.04 28.98L42.24 32.04C43.36 29.56 44 26.8 44 23.9C44 13.54 36.1 5 26 4ZM24 37.9C16.26 37.9 10 31.64 10 23.9C10 16.84 15.22 11.04 22 10.06V4C11.88 5 4 13.52 4 23.9C4 34.94 12.94 43.9 23.98 43.9C30.6 43.9 36.46 40.68 40.1 35.72L34.9 32.66C32.34 35.86 28.42 37.9 24 37.9Z" fill="white"/>
</g>
</g>
<defs>
<filter id="filter0_d_21_254" x="0" y="4" width="48" height="47.9" filterUnits="userSpaceOnUse" color-interpolation-filters="sRGB">
<feFlood flood-opacity="0" result="BackgroundImageFix"/>
<feColorMatrix in="SourceAlpha" type="matrix" values="0 0 0 0 0 0 0 0 0 0 0 0 0 0 0 0 0 0 127 0" result="hardAlpha"/>
<feOffset dy="4"/>
<feGaussianBlur stdDeviation="2"/>
<feComposite in2="hardAlpha" operator="out"/>
<feColorMatrix type="matrix" values="0 0 0 0 0 0 0 0 0 0 0 0 0 0 0 0 0 0 0.25 0"/>
<feBlend mode="normal" in2="BackgroundImageFix" result="effect1_dropShadow_21_254"/>
<feBlend mode="normal" in="SourceGraphic" in2="effect1_dropShadow_21_254" result="shape"/>
</filter>
<clipPath id="clip0_21_254">
<rect width="48" height="48" fill="white"/>
</clipPath>
</defs>
</svg>
