<svg width="48" height="50" viewBox="0 0 48 50" fill="none" xmlns="http://www.w3.org/2000/svg">
<g clip-path="url(#clip0_18_245)" filter="url(#filter0_d_18_245)">
<path d="M30 18H18V30H30V18ZM26 26H22V22H26V26ZM42 22V18H38V14C38 11.8 36.2 10 34 10H30V6H26V10H22V6H18V10H14C11.8 10 10 11.8 10 14V18H6V22H10V26H6V30H10V34C10 36.2 11.8 38 14 38H18V42H22V38H26V42H30V38H34C36.2 38 38 36.2 38 34V30H42V26H38V22H42ZM34 34H14V14H34V34Z" fill="white"/>
</g>
<defs>
<filter id="filter0_d_18_245" x="-4" y="0" width="56" height="56" filterUnits="userSpaceOnUse" color-interpolation-filters="sRGB">
<feFlood flood-opacity="0" result="BackgroundImageFix"/>
<feColorMatrix in="SourceAlpha" type="matrix" values="0 0 0 0 0 0 0 0 0 0 0 0 0 0 0 0 0 0 127 0" result="hardAlpha"/>
<feOffset dy="4"/>
<feGaussianBlur stdDeviation="2"/>
<feComposite in2="hardAlpha" operator="out"/>
<feColorMatrix type="matrix" values="0 0 0 0 0 0 0 0 0 0 0 0 0 0 0 0 0 0 0.25 0"/>
<feBlend mode="normal" in2="BackgroundImageFix" result="effect1_dropShadow_18_245"/>
<feBlend mode="normal" in="SourceGraphic" in2="effect1_dropShadow_18_245" result="shape"/>
</filter>
<clipPath id="clip0_18_245">
<rect width="48" height="48" fill="white"/>
</clipPath>
</defs>
</svg>
