<svg width="48" height="48" viewBox="0 0 48 48" fill="none" xmlns="http://www.w3.org/2000/svg">
<path fill-rule="evenodd" clip-rule="evenodd" d="M18 6C18.3083 6.00013 18.609 6.09524 18.8613 6.27238C19.1136 6.44952 19.3052 6.70009 19.41 6.99L30 36.108L34.59 23.484C34.6958 23.1952 34.8878 22.9459 35.14 22.7699C35.3922 22.5939 35.6924 22.4997 36 22.5H46.5C46.8978 22.5 47.2794 22.658 47.5607 22.9393C47.842 23.2206 48 23.6022 48 24C48 24.3978 47.842 24.7794 47.5607 25.0607C47.2794 25.342 46.8978 25.5 46.5 25.5H37.05L31.41 41.01C31.3049 41.2996 31.1132 41.5498 30.8609 41.7266C30.6086 41.9034 30.3081 41.9982 30 41.9982C29.6919 41.9982 29.3914 41.9034 29.1391 41.7266C28.8868 41.5498 28.6951 41.2996 28.59 41.01L18 11.892L13.41 24.513C13.3047 24.8023 13.1129 25.0523 12.8606 25.2288C12.6084 25.4054 12.3079 25.5001 12 25.5H1.5C1.10218 25.5 0.720644 25.342 0.43934 25.0607C0.158035 24.7794 0 24.3978 0 24C0 23.6022 0.158035 23.2206 0.43934 22.9393C0.720644 22.658 1.10218 22.5 1.5 22.5H10.95L16.59 6.99C16.6948 6.70009 16.8864 6.44952 17.1387 6.27238C17.391 6.09524 17.6917 6.00013 18 6Z" fill="white"/>
</svg>
