<svg width="48" height="48" viewBox="0 0 48 48" fill="none" xmlns="http://www.w3.org/2000/svg">
<g clip-path="url(#clip0_39_384)">
<path d="M15 0C15.3978 0 15.7794 0.158035 16.0607 0.43934C16.342 0.720644 16.5 1.10218 16.5 1.5V6H19.5V1.5C19.5 1.10218 19.658 0.720644 19.9393 0.43934C20.2206 0.158035 20.6022 0 21 0C21.3978 0 21.7794 0.158035 22.0607 0.43934C22.342 0.720644 22.5 1.10218 22.5 1.5V6H25.5V1.5C25.5 1.10218 25.658 0.720644 25.9393 0.43934C26.2206 0.158035 26.6022 0 27 0C27.3978 0 27.7794 0.158035 28.0607 0.43934C28.342 0.720644 28.5 1.10218 28.5 1.5V6H31.5V1.5C31.5 1.10218 31.658 0.720644 31.9393 0.43934C32.2206 0.158035 32.6022 0 33 0C33.3978 0 33.7794 0.158035 34.0607 0.43934C34.342 0.720644 34.5 1.10218 34.5 1.5V6C36.4891 6 38.3968 6.79018 39.8033 8.1967C41.2098 9.60322 42 11.5109 42 13.5H46.5C46.8978 13.5 47.2794 13.658 47.5607 13.9393C47.842 14.2206 48 14.6022 48 15C48 15.3978 47.842 15.7794 47.5607 16.0607C47.2794 16.342 46.8978 16.5 46.5 16.5H42V19.5H46.5C46.8978 19.5 47.2794 19.658 47.5607 19.9393C47.842 20.2206 48 20.6022 48 21C48 21.3978 47.842 21.7794 47.5607 22.0607C47.2794 22.342 46.8978 22.5 46.5 22.5H42V25.5H46.5C46.8978 25.5 47.2794 25.658 47.5607 25.9393C47.842 26.2206 48 26.6022 48 27C48 27.3978 47.842 27.7794 47.5607 28.0607C47.2794 28.342 46.8978 28.5 46.5 28.5H42V31.5H46.5C46.8978 31.5 47.2794 31.658 47.5607 31.9393C47.842 32.2206 48 32.6022 48 33C48 33.3978 47.842 33.7794 47.5607 34.0607C47.2794 34.342 46.8978 34.5 46.5 34.5H42C42 36.4891 41.2098 38.3968 39.8033 39.8033C38.3968 41.2098 36.4891 42 34.5 42V46.5C34.5 46.8978 34.342 47.2794 34.0607 47.5607C33.7794 47.842 33.3978 48 33 48C32.6022 48 32.2206 47.842 31.9393 47.5607C31.658 47.2794 31.5 46.8978 31.5 46.5V42H28.5V46.5C28.5 46.8978 28.342 47.2794 28.0607 47.5607C27.7794 47.842 27.3978 48 27 48C26.6022 48 26.2206 47.842 25.9393 47.5607C25.658 47.2794 25.5 46.8978 25.5 46.5V42H22.5V46.5C22.5 46.8978 22.342 47.2794 22.0607 47.5607C21.7794 47.842 21.3978 48 21 48C20.6022 48 20.2206 47.842 19.9393 47.5607C19.658 47.2794 19.5 46.8978 19.5 46.5V42H16.5V46.5C16.5 46.8978 16.342 47.2794 16.0607 47.5607C15.7794 47.842 15.3978 48 15 48C14.6022 48 14.2206 47.842 13.9393 47.5607C13.658 47.2794 13.5 46.8978 13.5 46.5V42C11.5109 42 9.60322 41.2098 8.1967 39.8033C6.79018 38.3968 6 36.4891 6 34.5H1.5C1.10218 34.5 0.720644 34.342 0.43934 34.0607C0.158035 33.7794 0 33.3978 0 33C0 32.6022 0.158035 32.2206 0.43934 31.9393C0.720644 31.658 1.10218 31.5 1.5 31.5H6V28.5H1.5C1.10218 28.5 0.720644 28.342 0.43934 28.0607C0.158035 27.7794 0 27.3978 0 27C0 26.6022 0.158035 26.2206 0.43934 25.9393C0.720644 25.658 1.10218 25.5 1.5 25.5H6V22.5H1.5C1.10218 22.5 0.720644 22.342 0.43934 22.0607C0.158035 21.7794 0 21.3978 0 21C0 20.6022 0.158035 20.2206 0.43934 19.9393C0.720644 19.658 1.10218 19.5 1.5 19.5H6V16.5H1.5C1.10218 16.5 0.720644 16.342 0.43934 16.0607C0.158035 15.7794 0 15.3978 0 15C0 14.6022 0.158035 14.2206 0.43934 13.9393C0.720644 13.658 1.10218 13.5 1.5 13.5H6C6 11.5109 6.79018 9.60322 8.1967 8.1967C9.60322 6.79018 11.5109 6 13.5 6V1.5C13.5 1.10218 13.658 0.720644 13.9393 0.43934C14.2206 0.158035 14.6022 0 15 0ZM13.5 9C12.3065 9 11.1619 9.47411 10.318 10.318C9.47411 11.1619 9 12.3065 9 13.5V34.5C9 35.6935 9.47411 36.8381 10.318 37.682C11.1619 38.5259 12.3065 39 13.5 39H34.5C35.6935 39 36.8381 38.5259 37.682 37.682C38.5259 36.8381 39 35.6935 39 34.5V13.5C39 12.3065 38.5259 11.1619 37.682 10.318C36.8381 9.47411 35.6935 9 34.5 9H13.5ZM15 19.5C15 18.3065 15.4741 17.1619 16.318 16.318C17.1619 15.4741 18.3065 15 19.5 15H28.5C29.6935 15 30.8381 15.4741 31.682 16.318C32.5259 17.1619 33 18.3065 33 19.5V28.5C33 29.6935 32.5259 30.8381 31.682 31.682C30.8381 32.5259 29.6935 33 28.5 33H19.5C18.3065 33 17.1619 32.5259 16.318 31.682C15.4741 30.8381 15 29.6935 15 28.5V19.5ZM19.5 18C19.1022 18 18.7206 18.158 18.4393 18.4393C18.158 18.7206 18 19.1022 18 19.5V28.5C18 28.8978 18.158 29.2794 18.4393 29.5607C18.7206 29.842 19.1022 30 19.5 30H28.5C28.8978 30 29.2794 29.842 29.5607 29.5607C29.842 29.2794 30 28.8978 30 28.5V19.5C30 19.1022 29.842 18.7206 29.5607 18.4393C29.2794 18.158 28.8978 18 28.5 18H19.5Z" fill="white"/>
</g>
<defs>
<clipPath id="clip0_39_384">
<rect width="48" height="48" fill="white"/>
</clipPath>
</defs>
</svg>
