<svg width="48" height="48" viewBox="0 0 48 48" fill="none" xmlns="http://www.w3.org/2000/svg">
<path d="M36 7.5C36 7.89782 35.842 8.27936 35.5607 8.56066C35.2794 8.84196 34.8978 9 34.5 9C34.1022 9 33.7206 8.84196 33.4393 8.56066C33.158 8.27936 33 7.89782 33 7.5C33 7.10218 33.158 6.72064 33.4393 6.43934C33.7206 6.15804 34.1022 6 34.5 6C34.8978 6 35.2794 6.15804 35.5607 6.43934C35.842 6.72064 36 7.10218 36 7.5ZM36 40.5C36 40.8978 35.842 41.2794 35.5607 41.5607C35.2794 41.842 34.8978 42 34.5 42C34.1022 42 33.7206 41.842 33.4393 41.5607C33.158 41.2794 33 40.8978 33 40.5C33 40.1022 33.158 39.7206 33.4393 39.4393C33.7206 39.158 34.1022 39 34.5 39C34.8978 39 35.2794 39.158 35.5607 39.4393C35.842 39.7206 36 40.1022 36 40.5ZM13.5 42C13.8978 42 14.2794 41.842 14.5607 41.5607C14.842 41.2794 15 40.8978 15 40.5C15 40.1022 14.842 39.7206 14.5607 39.4393C14.2794 39.158 13.8978 39 13.5 39C13.1022 39 12.7206 39.158 12.4393 39.4393C12.158 39.7206 12 40.1022 12 40.5C12 40.8978 12.158 41.2794 12.4393 41.5607C12.7206 41.842 13.1022 42 13.5 42ZM15 7.5C15 7.89782 14.842 8.27936 14.5607 8.56066C14.2794 8.84196 13.8978 9 13.5 9C13.1022 9 12.7206 8.84196 12.4393 8.56066C12.158 8.27936 12 7.89782 12 7.5C12 7.10218 12.158 6.72064 12.4393 6.43934C12.7206 6.15804 13.1022 6 13.5 6C13.8978 6 14.2794 6.15804 14.5607 6.43934C14.842 6.72064 15 7.10218 15 7.5ZM24 24C24.7956 24 25.5587 23.6839 26.1213 23.1213C26.6839 22.5587 27 21.7956 27 21C27 20.2044 26.6839 19.4413 26.1213 18.8787C25.5587 18.3161 24.7956 18 24 18C23.2044 18 22.4413 18.3161 21.8787 18.8787C21.3161 19.4413 21 20.2044 21 21C21 21.7956 21.3161 22.5587 21.8787 23.1213C22.4413 23.6839 23.2044 24 24 24Z" fill="white"/>
<path d="M36 21C36.0004 24.1501 34.7621 27.1741 32.5524 29.4192C30.3427 31.6642 27.3387 32.9504 24.189 33C22.578 35.439 21.129 37.545 20.646 38.031C20.0258 38.6516 19.1845 39.0004 18.3071 39.0007C17.4297 39.001 16.5881 38.6527 15.9675 38.0325C15.3469 37.4123 14.9981 36.5709 14.9978 35.6936C14.9975 34.8162 15.3458 33.9746 15.966 33.354C16.266 33.06 17.154 32.412 18.351 31.59C15.9886 30.331 14.115 28.3182 13.0282 25.8718C11.9414 23.4254 11.7038 20.6858 12.3532 18.0888C13.0026 15.4919 14.5018 13.1866 16.6122 11.5397C18.7226 9.89279 21.3231 8.99883 24 9C27.1826 9 30.2349 10.2643 32.4853 12.5147C34.7357 14.7652 36 17.8174 36 21ZM33 21C32.9998 19.3354 32.538 17.7035 31.6658 16.2857C30.7937 14.8679 29.5455 13.7197 28.0599 12.9688C26.5743 12.2179 24.9096 11.8938 23.2508 12.0323C21.592 12.1709 20.0041 12.7668 18.6637 13.7538C17.3233 14.7407 16.2828 16.0801 15.6581 17.623C15.0333 19.1658 14.8486 20.8518 15.1246 22.4933C15.4006 24.1348 16.1264 25.6677 17.2214 26.9214C18.3163 28.1751 19.7375 29.1006 21.327 29.595C23.328 28.275 25.515 26.865 27.192 25.791C27.864 25.359 28.641 26.136 28.212 26.811L26.352 29.691C28.2609 29.1737 29.9463 28.0422 31.1478 26.4713C32.3494 24.9005 33.0003 22.9777 33 21Z" fill="white"/>
<path d="M6 6C6 4.4087 6.63214 2.88258 7.75736 1.75736C8.88258 0.632141 10.4087 0 12 0L36 0C37.5913 0 39.1174 0.632141 40.2426 1.75736C41.3679 2.88258 42 4.4087 42 6V42C42 43.5913 41.3679 45.1174 40.2426 46.2426C39.1174 47.3679 37.5913 48 36 48H12C10.4087 48 8.88258 47.3679 7.75736 46.2426C6.63214 45.1174 6 43.5913 6 42V6ZM12 3C11.2044 3 10.4413 3.31607 9.87868 3.87868C9.31607 4.44129 9 5.20435 9 6V42C9 42.7957 9.31607 43.5587 9.87868 44.1213C10.4413 44.6839 11.2044 45 12 45H36C36.7956 45 37.5587 44.6839 38.1213 44.1213C38.6839 43.5587 39 42.7957 39 42V6C39 5.20435 38.6839 4.44129 38.1213 3.87868C37.5587 3.31607 36.7956 3 36 3H12Z" fill="white"/>
</svg>
