<svg width="48" height="48" viewBox="0 0 48 48" fill="none" xmlns="http://www.w3.org/2000/svg">
<g clip-path="url(#clip0_39_386)">
<path d="M3 9C2.20435 9 1.44129 9.31607 0.87868 9.87868C0.316071 10.4413 0 11.2044 0 12L0 36C0 36.7956 0.316071 37.5587 0.87868 38.1213C1.44129 38.6839 2.20435 39 3 39H16.758C17.5536 38.9998 18.3165 38.6836 18.879 38.121L19.938 37.062C20.0773 36.9223 20.2429 36.8115 20.4251 36.7359C20.6073 36.6602 20.8027 36.6213 21 36.6213C21.1973 36.6213 21.3927 36.6602 21.5749 36.7359C21.7571 36.8115 21.9227 36.9223 22.062 37.062L23.121 38.121C23.6835 38.6836 24.4464 38.9998 25.242 39H45C45.7957 39 46.5587 38.6839 47.1213 38.1213C47.6839 37.5587 48 36.7956 48 36V12C48 11.2044 47.6839 10.4413 47.1213 9.87868C46.5587 9.31607 45.7957 9 45 9H3ZM4.5 12H13.5C13.8978 12 14.2794 12.158 14.5607 12.4393C14.842 12.7206 15 13.1022 15 13.5V25.5C15 25.8978 14.842 26.2794 14.5607 26.5607C14.2794 26.842 13.8978 27 13.5 27H4.5C4.10218 27 3.72064 26.842 3.43934 26.5607C3.15804 26.2794 3 25.8978 3 25.5V13.5C3 13.1022 3.15804 12.7206 3.43934 12.4393C3.72064 12.158 4.10218 12 4.5 12ZM19.5 12H28.5C28.8978 12 29.2794 12.158 29.5607 12.4393C29.842 12.7206 30 13.1022 30 13.5V25.5C30 25.8978 29.842 26.2794 29.5607 26.5607C29.2794 26.842 28.8978 27 28.5 27H19.5C19.1022 27 18.7206 26.842 18.4393 26.5607C18.158 26.2794 18 25.8978 18 25.5V13.5C18 13.1022 18.158 12.7206 18.4393 12.4393C18.7206 12.158 19.1022 12 19.5 12ZM33 13.5C33 13.1022 33.158 12.7206 33.4393 12.4393C33.7206 12.158 34.1022 12 34.5 12H43.5C43.8978 12 44.2794 12.158 44.5607 12.4393C44.842 12.7206 45 13.1022 45 13.5V25.5C45 25.8978 44.842 26.2794 44.5607 26.5607C44.2794 26.842 43.8978 27 43.5 27H34.5C34.1022 27 33.7206 26.842 33.4393 26.5607C33.158 26.2794 33 25.8978 33 25.5V13.5ZM6 30V36H3V30H6ZM12 30V36H9V30H12ZM18 30V36H15V30H18ZM27 30V36H24V30H27ZM33 30V36H30V30H33ZM39 30V36H36V30H39ZM45 30V36H42V30H45Z" fill="white"/>
</g>
<defs>
<clipPath id="clip0_39_386">
<rect width="48" height="48" fill="white"/>
</clipPath>
</defs>
</svg>
