<svg width="48" height="48" viewBox="0 0 48 48" fill="none" xmlns="http://www.w3.org/2000/svg">
<g clip-path="url(#clip0_39_396)">
<path d="M3 18C2.20435 18 1.44129 18.3161 0.87868 18.8787C0.316071 19.4413 0 20.2044 0 21L0 30C0 30.7956 0.316071 31.5587 0.87868 32.1213C1.44129 32.6839 2.20435 33 3 33H45C45.7957 33 46.5587 32.6839 47.1213 32.1213C47.6839 31.5587 48 30.7956 48 30V21C48 20.2044 47.6839 19.4413 47.1213 18.8787C46.5587 18.3161 45.7957 18 45 18H3ZM37.5 21C37.8978 21 38.2794 21.158 38.5607 21.4393C38.842 21.7206 39 22.1022 39 22.5C39 22.8978 38.842 23.2794 38.5607 23.5607C38.2794 23.842 37.8978 24 37.5 24C37.1022 24 36.7206 23.842 36.4393 23.5607C36.158 23.2794 36 22.8978 36 22.5C36 22.1022 36.158 21.7206 36.4393 21.4393C36.7206 21.158 37.1022 21 37.5 21ZM43.5 21C43.8978 21 44.2794 21.158 44.5607 21.4393C44.842 21.7206 45 22.1022 45 22.5C45 22.8978 44.842 23.2794 44.5607 23.5607C44.2794 23.842 43.8978 24 43.5 24C43.1022 24 42.7206 23.842 42.4393 23.5607C42.158 23.2794 42 22.8978 42 22.5C42 22.1022 42.158 21.7206 42.4393 21.4393C42.7206 21.158 43.1022 21 43.5 21ZM3 22.5C3 22.1022 3.15804 21.7206 3.43934 21.4393C3.72064 21.158 4.10218 21 4.5 21H19.5C19.8978 21 20.2794 21.158 20.5607 21.4393C20.842 21.7206 21 22.1022 21 22.5C21 22.8978 20.842 23.2794 20.5607 23.5607C20.2794 23.842 19.8978 24 19.5 24H4.5C4.10218 24 3.72064 23.842 3.43934 23.5607C3.15804 23.2794 3 22.8978 3 22.5ZM3.75 27H20.25C20.4489 27 20.6397 27.079 20.7803 27.2197C20.921 27.3603 21 27.5511 21 27.75C21 27.9489 20.921 28.1397 20.7803 28.2803C20.6397 28.421 20.4489 28.5 20.25 28.5H3.75C3.55109 28.5 3.36032 28.421 3.21967 28.2803C3.07902 28.1397 3 27.9489 3 27.75C3 27.5511 3.07902 27.3603 3.21967 27.2197C3.36032 27.079 3.55109 27 3.75 27Z" fill="white"/>
</g>
<defs>
<clipPath id="clip0_39_396">
<rect width="48" height="48" fill="white"/>
</clipPath>
</defs>
</svg>
